<svg version="1" xmlns="http://www.w3.org/2000/svg" width="461.333" height="461.333" viewBox="0 0 346 346"><path d="M109.5 18.6c-1.7 1.3-3.4 2.4-3.9 2.4s-3.3 1.8-6.3 4c-5.5 4.2-8.3 8.5-10.2 15.6-1 3.8-1.4 4.2-5 4.7-2.1.2-7.6 2.3-12.3 4.6L63.3 54l-4.9-2.2c-9.8-4.5-24.1-2.4-29.9 4.4-6 6.9-6.9 9.1-7.1 16.3-.1 4.4.3 7.5 1.1 8.5.8.8 2.1 3.5 3.1 6 .9 2.5 2.7 5.6 3.9 7 1.1 1.4 3.3 4.2 4.9 6.3 3.6 4.9 7.4 6.8 14.8 7.2 3.3.2 6.2.5 6.4.8.2.2-.9 3-2.5 6.3-1.6 3.2-4.1 9.5-5.5 13.9-1.5 4.4-3.1 8.9-3.6 10-.5 1.1-1.1 4.5-1.4 7.5-.3 3-1 8.4-1.4 12-2 15.8 2.6 37.2 9.7 44.7 1.2 1.2 2.1 2.7 2.1 3.4 0 1.5 3.7 7.5 6.7 10.9 1.2 1.4 4.5 5.3 7.3 8.8 4.8 5.9 15.5 14.8 19 15.9.8.2 7.8 3.5 15.5 7.3 18.2 8.9 27.3 11.1 48.5 11.6 15.3.4 15.5.4 15.3 2.7-.1 1.2-.7 6.8-1.2 12.5-.6 6.4-.7 11.2-.1 12.7 1.3 3.5-.1 3.9-8.1 1.9-8-1.9-11.9-4.5-11.9-7.9 0-1.5-.7-2.6-2-3-1.1-.3-2.5-1.5-3.1-2.7-.7-1.3-1.7-1.8-3.1-1.5-1.1.3-3 .1-4.3-.5-3.6-1.6-15 1.6-20.4 5.8-5.6 4.3-6.5 5.6-9.1 13.3-3.1 9.3-2.8 9.7 9.3 12.7 2.4.5 2.7 1 2.2 2.8-1.5 4.3-.8 7.9 1.9 10.3 3.6 3.1 8.7 2.9 15.6-.6 7.5-3.8 10.9-9.2 11.7-19 .6-6.7.8-7.2 2.7-6.7 1.2.3 6.3 1.3 11.4 2.3l9.3 1.7 1.5 5.2c3.2 11.2 13.5 19 31.1 23.5 9.8 2.5 13.1 2.4 24.5-.5 16.8-4.3 26-10.7 33.7-23.4 11.7-19.6 11.5-31.3-.9-50.8-2-3.3 0-7.1 9-16.6 7.4-8 7.8-8.2 10.4-7 4.1 1.8 15.4 1.5 20.1-.7 3.8-1.7 9.8-7.9 12.3-12.8 1.7-3.1 1.5-10.9-.4-14.6-2-3.9-6.4-8.7-8-8.7-.6 0-1.7-.7-2.4-1.5-.8-1-3-1.5-6.2-1.5-4.4 0-5.4.4-8.7 3.7-2.1 2.1-4.6 5-5.6 6.5-1.4 2.3-2.5 2.8-5.5 2.8-6.5 0-7.3-.7-5-4.1 11.4-16 14.9-56.1 6.7-78.4-2.8-7.8-9.1-20.1-14.4-28.1-6.5-10-22.8-25.9-32.2-31.3-11.4-6.7-28.2-11.9-45.3-14.2-10.5-1.3-23.6-.3-34.2 2.7-2.7.8-5.1 1.2-5.3 1-.2-.1-1-2.9-1.8-6-2.8-10.7-8.3-18.7-15.9-23-6.3-3.6-10.5-3.9-14.1-1zm11.9 7.2c5 3.5 7.1 6.4 9.6 13.2 2.3 6.2 2.6 11.5.8 12.7-1.6 1-12.2 5.3-12.3 5 0-.1-.7-2.4-1.4-5.2-.6-2.7-2-5.8-2.9-6.9-2.7-3-9.3-5.6-14.4-5.6-3.2 0-4.8-.4-4.8-1.3 0-2.4 4.5-7.8 9.5-11.2 6.3-4.3 10.5-4.5 15.9-.7zm-12.9 21.7c1.9 1.8 2.5 3.5 2.5 7 0 2.5.1 4.8.3 5.2.3 1-6.4 5.4-7.7 5-.5-.2-1.5-2.5-2.2-5.1-.7-2.6-2.4-6.5-3.9-8.7-1.4-2.2-2.3-4.4-2-4.9.3-.6 2.9-1 5.6-1 4 0 5.5.5 7.4 2.5zm75 2.6c31.1 4.3 52.3 17.3 69.3 42.5 14.4 21.5 19.5 42.5 16.7 68.4-1.6 14.7-2.7 19.2-7.4 29-4.4 9.3-8 13.8-17.4 22.2-10.5 9.6-21.4 17.4-30.2 22-3.8 2-11.5 5.9-17 8.8-11.5 6-17 8-22.9 8.5-2.2.2-6.2.9-8.7 1.5-2.9.7-9.9 1-19 .7-12.6-.4-17.1-.9-27.6-3.2-3.4-.8-2.8-2 1.7-3.4 2.1-.6 5.5-2.7 7.5-4.5 4.7-4.4 4.7-8.3.2-13.3-3-3.2-3.8-3.6-8.8-3.6-4.4-.1-7 .7-14.2 4.2-4.8 2.4-9.2 5.2-9.8 6.2-1.3 2.6-3.2 2.4-8.2-.7-10.5-6.6-19.4-16.1-29-31.1-5.8-8.9-8.3-16.5-10.2-30.5-1.9-14.3-1.9-19 0-31.8 2.3-14.9 6.8-27.3 12.7-34.6 1.3-1.6 3.2-4.2 4.2-5.7 3.7-6 8.8-10.7 12.7-11.7 3.2-.9 3.9-1.5 3.9-3.5 0-1.8 1.6-3.5 6.4-6.9C94.7 75 97 74.1 97 76c0 1.8 4.6 1.1 6.5-1 1-1.1 2.5-2 3.3-2 2.3 0 8-4.7 9.7-8 1.6-3.1 6.1-6 9.2-6 1.6.1 1.5.3-.4 1.9-3.6 3-2.9 4.4 1.5 3.6 5.2-1 9.5-3.9 11.7-8 2.1-3.7 1.9-3.6 21-7.3 5.2-1 12.2-.7 24 .9zm-93.3 3.4C93 56.3 95 62 95 67.2c0 3.2-.7 4-9.1 10.2-10.2 7.6-9.1 7.7-14.5-1.2-5.7-9.3-5.2-17.6 1.2-20.7 11.3-5.4 14-5.7 17.6-2zm-37.3 2.4c4.8 2 4.7 2.2-2.3 7.6-4.7 3.6-7 8.4-6.2 12.7.9 4.8 6.1 11.6 10.3 13.3 4.3 1.8 12.4 2 14.1.3.6-.6 1.4-.9 1.7-.6.3.3-1.2 2.5-3.3 4.9-2.1 2.4-4.9 5.9-6.1 7.7-1.7 2.4-2.7 3-3.4 2.3-.6-.6-3.3-1.1-5.9-1.1-6 0-9-1.5-14.5-7.2-8.6-8.8-12.6-23.2-8.9-31.9 3.7-8.8 14.1-12.2 24.5-8zm8.1 9.7c0 3.8 2 10.2 4.7 15.2l2.4 4.2-2.6 1c-3.7 1.4-4 1.3-8-2.1-7.5-6.6-8.5-12.9-3-17.8 4.4-3.8 6.5-4 6.5-.5zm235 129.9c6.2 3.2 7.6 10.9 3.6 19.8-3 6.9-3.9 7.5-13.8 8.4-3.8.4-6-.1-11.5-2.7-8.6-4-10.3-5.6-10.3-9.2 0-5.5 4.3-7.3 10-4.3 3.8 1.9 8 1 8-1.7 0-2.2 2.5-7.5 4.8-10.1 1.9-2.1 5.4-2.2 9.2-.2zM257.4 215c.7 2.1 2.7 4.6 5.3 6.5 4.6 3.3 5.2 4.8 2.4 6.1-1 .5-4.9 4.4-8.6 8.6-3.7 4.3-6.9 7.8-7.1 7.8-.1 0-1.8-.9-3.6-1.9-1.8-1.1-6.8-3.1-11-4.6-4.3-1.5-7.8-3.1-7.8-3.5 0-.3 2.8-2.3 6.3-4.3 3.4-2 9.6-7 13.7-11.1 4.1-4 7.9-7.3 8.4-7.2.5.1 1.4 1.7 2 3.6zm44.7 4.3c-1.7 1.7-2.4.1-.9-2.2 1.1-1.8 1.4-1.9 1.6-.5.2.9-.1 2.1-.7 2.7zm-178.7 13.9c2.1 3 2 4-.6 7-2.2 2.5-2.5 2.6-10.6 1.8-4.5-.4-8.5-1-8.9-1.3-1.4-1.5 1.8-5.5 5.9-7.5 5.9-2.9 12.2-2.9 14.2 0zm99.2 6.3c.4.8 1.6 1.5 2.9 1.5 3.7 0 13.2 3.7 18 7 7.1 4.9 10.9 9.2 12.5 14.1.8 2.4 2 5.4 2.8 6.7 5.9 9.2-9.4 38.9-23.7 46.1-14.1 7.1-28.5 8.6-41.6 4.3-12.5-4.1-19.4-10.8-23.8-23.2-1.6-4.6-1.8-7.2-1.4-16 .3-5.8 1.1-12.6 1.7-15.2l1.2-4.7 8.7-2.7c7.3-2.2 26.1-11.2 36.6-17.6 3.7-2.2 5.4-2.3 6.1-.3zm-93.1 41.8c5.8 3.3 7.8 8.1 7.8 18.5 0 4.9-.5 8.8-1.2 9.5-.6.6-1.1 1.9-1.1 2.8 0 4.1-12 6.6-14.6 3.1-2.1-2.7-1.6-4.8 1.8-8.2 3-3 3.1-3.3 1.4-4.5-1.2-.9-3.5-1.2-7.1-.8-9.4 1-12.7-3.3-9.1-11.8 2.1-5 6.5-8.4 13.1-10 4.5-1.1 4.7-1 9 1.4zm10.5 13.1c0 .3-.4.8-1 1.1-.5.3-1 .1-1-.4 0-.6.5-1.1 1-1.1.6 0 1 .2 1 .4z"/><path d="M210.2 86.4c-4.8 1-8.2 3.4-8.2 5.8 0 1.5 5.6.8 9.8-1.2 2.2-1.1 5.9-2 8.2-2 4.9 0 5.6-2.4.9-3.4-3.7-.7-3.9-.7-10.7.8zm9.3 35.4c-7.1 2.3-8.6 4.7-9.2 14.7l-.6 8.7 5.9 5.4c8 7.5 13.6 8.8 21.5 4.8 4.8-2.4 10.9-14.1 10.9-20.9 0-3.7-3-8.8-6.6-11.1-3.6-2.4-16.6-3.3-21.9-1.6zM73 149.1c-4.2 4.1-7.5 10.2-6.5 11.9 1.3 2.2 4.5.9 5.8-2.3.8-1.7 3.1-4.9 5.2-6.9 3.3-3.1 3.6-3.9 2.5-5.2-1.8-2.3-2.3-2.1-7 2.5zm165.1 22.3c-1.9.7-4.9 3-6.8 5.1-2.8 3.2-3.3 4.6-3.3 8.7 0 4.8 0 4.8 3.3 4.8 1.7 0 4.5.7 6.1 1.5 1.5.8 3.8 1.5 5 1.5 3.6-.1 10.2-3.6 12.4-6.8 2.5-3.4 2.9-9.7.8-12.4-2.8-3.7-10.9-4.8-17.5-2.4zm10.9 5.1c3 3.6-2.9 11.5-8.6 11.5-1.8 0-4.2-.8-5.5-1.9-2.1-1.7-2.2-2-.9-5.1 2.1-5.1 12-8.1 15-4.5zm-47.2-4c-.3.3-4.7 1.2-9.7 1.9-6 .9-9.9 2.1-11.3 3.3-1.1 1-2.9 1.7-3.9 1.5-1.1-.2-2.2.4-2.5 1.3-.5 1.2-1.4 1.4-3.4 1-2.2-.5-2.8-.2-3.2 1.3-.4 1.4-2.8 2.6-8.5 4.4-8.8 2.8-21.2 9.5-25.7 14-2.7 2.8-2.8 3-1.1 4.8 1 1.1 2.3 2 2.9 2 .6.1 4.4 3.2 8.5 7.1 6.2 5.9 9.6 8.1 20.7 13.5 7.3 3.5 15.3 6.9 17.8 7.6 4.4 1.2 4.8 1.1 7-1.2 1.3-1.4 3.9-5.4 5.9-9 1.9-3.6 4.7-8.5 6.1-11 2.4-4.3 7.1-18.2 9.4-28.1 1.5-6.1-.1-12.2-3.4-13.8-2.7-1.2-4.8-1.4-5.6-.6zM203 186c0 3.8-.5 8.1-1.2 9.5-.9 2.1-.9 3.1 0 4.6 1.5 2.4 1.5 2.9-.2 2.9-.8 0-1.6 1.5-2 3.8-.3 2.1-1.5 4.7-2.7 5.8-1.2 1-3.2 3.9-4.5 6.4-1.3 2.5-3.7 6.1-5.3 8l-3 3.5-5.3-1.8c-2.9-1-9.6-3.9-14.8-6.5-7.4-3.5-10.9-6-15.7-11-3.5-3.5-6.3-6.9-6.3-7.6 0-2.3 28.7-17.5 38.5-20.4 11.9-3.5 13.9-4 18.3-4.1l4.2-.1v7zm-119.6 1.2c-5.2 4.6-7.5 10.2-6.4 15.3.5 2.2 1.4 4.1 1.9 4.3.6.2 1.1 1 1.1 1.7 0 .8 1.7 3.3 3.8 5.6l3.9 4.2 6.5-.5c8.1-.5 12.9-3.4 15.9-9.6 2.5-5 2.1-8.1-1.6-15.7-3.2-6.6-6.5-8.5-14.9-8.5-5.9 0-6.9.3-10.2 3.2zm128.9 66c-1.9 2.5-2.4 6.8-1 8.9 1.2 1.7 1.5 1.7 2 .5.9-2.4 3.1-.9 5.5 3.5 3.1 5.8 2.9 6.5-2.5 7.3-5.7.8-7.2-.4-5.3-3.9 1.5-2.7.5-4.9-1.1-2.5-.8 1.2-1 1.1-.8-.5.4-5.8-1.8-6.3-2.7-.6-.9 5.3-3.9 6.1-10.1 2.6-5.1-2.8-9.3-3.3-9.3-1.1 0 3.1 8 18.5 10.4 20.1 2.4 1.6 2.7 1.6 5.5-.5 1.9-1.3 3.4-3.6 4.1-6.1.6-2.2 1.7-4.2 2.5-4.5.7-.3 4.4.4 8.1 1.6 5.7 1.7 7.3 1.9 9.7.9 2-.9 2.6-1.6 2.1-2.8-.3-.9-.9-2.4-1.1-3.4-.3-1-1.1-1.6-1.8-1.3-.8.3-1.1-.2-.8-1.4.7-2.8-2.8-11.9-5.9-15.2-2.8-3-5.9-3.6-7.5-1.6zm-11.6 22.3c.1.5-.2 1.7-.7 2.5-.9 1.3-1.2 1.2-2.5-.4-.8-1.1-1.5-2.4-1.5-2.9 0-1.2 4.3-.5 4.7.8z"/></svg>